<svg width="54" height="54" viewBox="0 0 54 54" fill="none" xmlns="http://www.w3.org/2000/svg">
<path d="M47.1316 38.4717C48.8686 40.2088 48.8686 43.0227 47.1316 44.7597C46.27 45.6282 45.1306 46.059 43.9911 46.059C42.8517 46.059 41.715 45.6247 40.8479 44.7562L26.2042 30.1203L11.5621 44.7527C10.6935 45.6281 9.55549 46.059 8.41744 46.059C7.27933 46.059 6.14264 45.6281 5.27345 44.7527C3.53645 43.0157 3.53645 40.2018 5.27345 38.4648L19.9198 23.8184L5.27345 9.17903C3.53645 7.44206 3.53645 4.62812 5.27345 2.89113C7.01045 1.15413 9.82438 1.15413 11.5614 2.89113L26.2042 17.5444L40.8506 2.89808C42.5876 1.16108 45.4016 1.16108 47.1385 2.89808C48.8755 4.63507 48.8755 7.449 47.1385 9.18602L32.4922 23.8323L47.1316 38.4717Z" fill="#FBEFD0"/>
</svg>
