<svg width="62" height="48" viewBox="0 0 62 48" fill="none" xmlns="http://www.w3.org/2000/svg">
<path d="M0 4C0 1.79125 1.95643 0 4.36886 0H56.7952C59.2117 0 61.164 1.79125 61.164 4C61.164 6.2125 59.2117 8 56.7952 8H4.36886C1.95643 8 0 6.2125 0 4ZM0 24C0 21.7875 1.95643 20 4.36886 20H56.7952C59.2117 20 61.164 21.7875 61.164 24C61.164 26.2125 59.2117 28 56.7952 28H4.36886C1.95643 28 0 26.2125 0 24ZM56.7952 48H4.36886C1.95643 48 0 46.2125 0 44C0 41.7875 1.95643 40 4.36886 40H56.7952C59.2117 40 61.164 41.7875 61.164 44C61.164 46.2125 59.2117 48 56.7952 48Z" fill="#F1DBA3"/>
<path d="M0 4C0 1.79125 1.95643 0 4.36886 0H56.7952C59.2117 0 61.164 1.79125 61.164 4C61.164 6.2125 59.2117 8 56.7952 8H4.36886C1.95643 8 0 6.2125 0 4ZM0 24C0 21.7875 1.95643 20 4.36886 20H56.7952C59.2117 20 61.164 21.7875 61.164 24C61.164 26.2125 59.2117 28 56.7952 28H4.36886C1.95643 28 0 26.2125 0 24ZM56.7952 48H4.36886C1.95643 48 0 46.2125 0 44C0 41.7875 1.95643 40 4.36886 40H56.7952C59.2117 40 61.164 41.7875 61.164 44C61.164 46.2125 59.2117 48 56.7952 48Z" fill="#D1CFCA" fill-opacity="0.5"/>
</svg>
