<svg width="77" height="85" viewBox="0 0 77 85" fill="none" xmlns="http://www.w3.org/2000/svg">
<path fill-rule="evenodd" clip-rule="evenodd" d="M2.64905 17.0263C2.8742 17.093 2.84446 16.9633 3.0186 17.1321C3.19275 17.301 3.1685 17.5982 3.25282 17.8603C3.92007 20.1957 4.98544 23.7315 5.75352 26.045C8.11702 34.6059 11.8141 42.7392 16.7357 50.2049C21.6394 57.5966 28.3879 63.7654 36.4755 68.2489C46.6669 73.8557 54.1018 72.9786 58.7234 68.2723C61.7296 65.2126 63.4759 60.6945 64.2881 55.4705C64.8139 52.2747 64.9844 49.0597 64.7968 45.8755C64.7904 45.712 64.8513 45.5481 64.9675 45.4159C65.0837 45.2837 65.247 45.1926 65.4253 45.1605C65.6037 45.1284 65.7844 45.1576 65.9321 45.2423C66.0798 45.327 66.1839 45.4612 66.2241 45.6186C67.1844 49.6742 67.4268 53.8854 66.9423 58.0971C66.4815 62.5283 64.5349 66.8107 61.3703 70.3547C55.9127 76.038 46.8481 77.6231 34.7252 70.7427C26.3744 65.9254 19.4575 59.3626 14.4958 51.5491C9.63466 43.8171 6.04288 35.4219 3.82718 26.613C3.29332 24.2453 2.5614 20.5912 2.15619 18.1391C2.07187 17.877 1.98129 17.5954 2.04138 17.3724C2.10146 17.1494 2.15292 17.2722 2.32796 17.1085C2.3143 17.066 2.32007 17.0192 2.344 16.9783C2.36793 16.9374 2.40806 16.9058 2.45557 16.8905C2.50308 16.8752 2.55406 16.8773 2.59732 16.8965C2.64057 16.9157 2.67257 16.9504 2.68624 16.9929" fill="#F1DBA3"/>
<path fill-rule="evenodd" clip-rule="evenodd" d="M65.5915 45.6949C64.8194 47.7485 63.7959 49.7294 62.5413 51.5982C61.9353 52.5703 61.067 53.3942 60.0257 53.9853C58.4732 54.4862 58.3666 53.1488 58.561 52.561C58.7554 51.9731 59.0208 51.2337 59.4549 50.2363C60.6647 47.4775 62.5429 43.7421 62.8779 42.8838C64.1061 40.0333 65.8649 40.3231 66.8393 41.0054C67.4578 41.4382 68.2029 43.084 69.0151 44.976L70.2398 48.2247L72.2003 54.0224C72.2743 54.1832 72.2732 54.3687 72.1973 54.5379C72.1214 54.7071 71.9769 54.8462 71.7955 54.9246C71.6142 55.003 71.4108 55.0143 71.2303 54.956C71.0497 54.8977 70.9067 54.7745 70.8327 54.6137L67.6287 49.4209L65.8706 46.3764C65.7817 46.1589 65.7097 45.9351 65.6552 45.7065" fill="#F1DBA3"/>
</svg>
